<mxfile host="app.diagrams.net" modified="2023-09-18T16:50:06.315Z" agent="Mozilla/5.0 (Windows NT 10.0; Win64; x64) AppleWebKit/537.36 (KHTML, like Gecko) Chrome/116.0.0.0 Safari/537.36 Edg/116.0.1938.81" version="21.7.5" etag="ARftkLNe7XwdyVy6pzZs" type="device">
  <diagram id="-DPmXS76Umg-Spe6nsbr" name="Page-1">
    <mxGraphModel dx="1184" dy="932" grid="1" gridSize="10" guides="1" tooltips="1" connect="1" arrows="1" fold="1" page="1" pageScale="1" pageWidth="827" pageHeight="1169" math="0" shadow="0">
      <root>
        <mxCell id="0" />
        <mxCell id="1" parent="0" />
        <mxCell id="rHMRhhfsmZjwr-JyM9iI-22" value="" style="rounded=0;whiteSpace=wrap;html=1;fillColor=none;dashed=1;labelBackgroundColor=none;" parent="1" vertex="1">
          <mxGeometry x="160" y="40" width="1170" height="370" as="geometry" />
        </mxCell>
        <mxCell id="rHMRhhfsmZjwr-JyM9iI-27" style="edgeStyle=orthogonalEdgeStyle;rounded=0;orthogonalLoop=1;jettySize=auto;html=1;dashed=1;labelBackgroundColor=none;" parent="1" source="rHMRhhfsmZjwr-JyM9iI-26" target="rHMRhhfsmZjwr-JyM9iI-19" edge="1">
          <mxGeometry relative="1" as="geometry" />
        </mxCell>
        <mxCell id="rHMRhhfsmZjwr-JyM9iI-30" style="edgeStyle=orthogonalEdgeStyle;rounded=0;orthogonalLoop=1;jettySize=auto;html=1;endArrow=none;endFill=0;fillColor=#dae8fc;strokeColor=#6c8ebf;labelBackgroundColor=none;" parent="1" source="rHMRhhfsmZjwr-JyM9iI-26" target="rHMRhhfsmZjwr-JyM9iI-20" edge="1">
          <mxGeometry relative="1" as="geometry">
            <Array as="points">
              <mxPoint x="730" y="190" />
              <mxPoint x="730" y="190" />
            </Array>
          </mxGeometry>
        </mxCell>
        <mxCell id="-X691ST315V3n6Ed_qC9-4" value="Metric Data&lt;br&gt;Audit &amp;amp; Diagnostic Logs" style="edgeStyle=orthogonalEdgeStyle;rounded=0;orthogonalLoop=1;jettySize=auto;html=1;labelBackgroundColor=none;dashed=1;" parent="1" source="rHMRhhfsmZjwr-JyM9iI-26" target="-X691ST315V3n6Ed_qC9-3" edge="1">
          <mxGeometry relative="1" as="geometry">
            <Array as="points">
              <mxPoint x="1110" y="125" />
              <mxPoint x="1110" y="125" />
            </Array>
          </mxGeometry>
        </mxCell>
        <mxCell id="rHMRhhfsmZjwr-JyM9iI-34" style="edgeStyle=orthogonalEdgeStyle;rounded=0;orthogonalLoop=1;jettySize=auto;html=1;fillColor=#dae8fc;strokeColor=#6c8ebf;labelBackgroundColor=none;" parent="1" source="rHMRhhfsmZjwr-JyM9iI-25" target="rHMRhhfsmZjwr-JyM9iI-26" edge="1">
          <mxGeometry relative="1" as="geometry">
            <Array as="points">
              <mxPoint x="710" y="120" />
              <mxPoint x="710" y="120" />
            </Array>
          </mxGeometry>
        </mxCell>
        <mxCell id="-X691ST315V3n6Ed_qC9-6" style="edgeStyle=orthogonalEdgeStyle;rounded=0;orthogonalLoop=1;jettySize=auto;html=1;dashed=1;labelBackgroundColor=none;entryX=0.5;entryY=1;entryDx=0;entryDy=0;" parent="1" source="rHMRhhfsmZjwr-JyM9iI-25" target="-X691ST315V3n6Ed_qC9-3" edge="1">
          <mxGeometry relative="1" as="geometry">
            <mxPoint x="1250" y="300" as="targetPoint" />
            <Array as="points">
              <mxPoint x="458" y="340" />
              <mxPoint x="1250" y="340" />
            </Array>
          </mxGeometry>
        </mxCell>
        <mxCell id="-X691ST315V3n6Ed_qC9-7" value="Diagnostic Logs &amp;amp; Metric Data" style="edgeLabel;html=1;align=center;verticalAlign=middle;resizable=0;points=[];labelBackgroundColor=none;" parent="-X691ST315V3n6Ed_qC9-6" vertex="1" connectable="0">
          <mxGeometry x="-0.561" relative="1" as="geometry">
            <mxPoint x="6" y="-7" as="offset" />
          </mxGeometry>
        </mxCell>
        <mxCell id="rHMRhhfsmZjwr-JyM9iI-25" value="" style="rounded=0;whiteSpace=wrap;html=1;dashed=1;labelBackgroundColor=none;fillColor=#E6E6E6;strokeColor=none;" parent="1" vertex="1">
          <mxGeometry x="290" y="100.5" width="336" height="180" as="geometry" />
        </mxCell>
        <mxCell id="rHMRhhfsmZjwr-JyM9iI-24" value="" style="rounded=0;whiteSpace=wrap;html=1;dashed=1;fillColor=#E6E6E6;strokeColor=none;labelBackgroundColor=none;" parent="1" vertex="1">
          <mxGeometry x="300" y="290" width="140" height="85" as="geometry" />
        </mxCell>
        <mxCell id="rHMRhhfsmZjwr-JyM9iI-1" value="Azure Active Directory" style="aspect=fixed;html=1;points=[];align=center;image;fontSize=12;image=img/lib/azure2/identity/Azure_Active_Directory.svg;fontFamily=Helvetica;fontColor=default;strokeColor=none;fillColor=#00BEF2;labelPosition=center;verticalLabelPosition=top;verticalAlign=bottom;labelBackgroundColor=none;" parent="1" vertex="1">
          <mxGeometry x="49.75" y="20" width="62.5" height="70" as="geometry" />
        </mxCell>
        <mxCell id="rHMRhhfsmZjwr-JyM9iI-5" value="DNS Lookup" style="edgeStyle=orthogonalEdgeStyle;rounded=0;orthogonalLoop=1;jettySize=auto;html=1;dashed=1;labelBackgroundColor=none;" parent="1" source="rHMRhhfsmZjwr-JyM9iI-3" target="rHMRhhfsmZjwr-JyM9iI-4" edge="1">
          <mxGeometry relative="1" as="geometry" />
        </mxCell>
        <mxCell id="rHMRhhfsmZjwr-JyM9iI-6" value="Authentication" style="edgeStyle=orthogonalEdgeStyle;rounded=0;orthogonalLoop=1;jettySize=auto;html=1;dashed=1;labelBackgroundColor=none;" parent="1" source="rHMRhhfsmZjwr-JyM9iI-3" target="rHMRhhfsmZjwr-JyM9iI-1" edge="1">
          <mxGeometry relative="1" as="geometry" />
        </mxCell>
        <mxCell id="rHMRhhfsmZjwr-JyM9iI-14" style="edgeStyle=orthogonalEdgeStyle;rounded=0;orthogonalLoop=1;jettySize=auto;html=1;fillColor=#dae8fc;strokeColor=#6c8ebf;labelBackgroundColor=none;" parent="1" source="rHMRhhfsmZjwr-JyM9iI-3" target="rHMRhhfsmZjwr-JyM9iI-7" edge="1">
          <mxGeometry relative="1" as="geometry" />
        </mxCell>
        <mxCell id="rHMRhhfsmZjwr-JyM9iI-3" value="Internet" style="shape=image;html=1;verticalAlign=middle;verticalLabelPosition=middle;labelBackgroundColor=none;imageAspect=0;aspect=fixed;image=https://cdn4.iconfinder.com/data/icons/for-your-interface-free-samples/128/Globe-128.png;labelPosition=left;align=right;" parent="1" vertex="1">
          <mxGeometry x="47.25" y="171" width="65" height="65" as="geometry" />
        </mxCell>
        <mxCell id="rHMRhhfsmZjwr-JyM9iI-4" value="Azure DNS" style="aspect=fixed;html=1;points=[];align=center;image;fontSize=12;image=img/lib/azure2/networking/DNS_Zones.svg;labelBackgroundColor=none;" parent="1" vertex="1">
          <mxGeometry x="55.63" y="330" width="48.25" height="48.25" as="geometry" />
        </mxCell>
        <mxCell id="rHMRhhfsmZjwr-JyM9iI-13" style="edgeStyle=orthogonalEdgeStyle;rounded=0;orthogonalLoop=1;jettySize=auto;html=1;fillColor=#dae8fc;strokeColor=#6c8ebf;labelBackgroundColor=none;" parent="1" source="rHMRhhfsmZjwr-JyM9iI-7" target="rHMRhhfsmZjwr-JyM9iI-28" edge="1">
          <mxGeometry relative="1" as="geometry">
            <Array as="points">
              <mxPoint x="290" y="204" />
              <mxPoint x="290" y="204" />
            </Array>
          </mxGeometry>
        </mxCell>
        <mxCell id="rHMRhhfsmZjwr-JyM9iI-7" value="Azure Front Door&lt;br&gt;WAF&lt;br&gt;CDN" style="aspect=fixed;html=1;points=[];align=center;image;fontSize=12;image=img/lib/azure2/networking/Front_Doors.svg;labelPosition=center;verticalLabelPosition=top;verticalAlign=bottom;labelBackgroundColor=none;" parent="1" vertex="1">
          <mxGeometry x="191" y="174" width="68" height="60" as="geometry" />
        </mxCell>
        <mxCell id="rHMRhhfsmZjwr-JyM9iI-11" style="edgeStyle=orthogonalEdgeStyle;rounded=0;orthogonalLoop=1;jettySize=auto;html=1;fillColor=#dae8fc;strokeColor=#6c8ebf;labelBackgroundColor=none;" parent="1" source="rHMRhhfsmZjwr-JyM9iI-28" target="rHMRhhfsmZjwr-JyM9iI-10" edge="1">
          <mxGeometry relative="1" as="geometry">
            <Array as="points">
              <mxPoint x="410" y="204" />
              <mxPoint x="410" y="204" />
            </Array>
          </mxGeometry>
        </mxCell>
        <mxCell id="rHMRhhfsmZjwr-JyM9iI-12" style="edgeStyle=orthogonalEdgeStyle;rounded=0;orthogonalLoop=1;jettySize=auto;html=1;fillColor=#dae8fc;strokeColor=#6c8ebf;labelBackgroundColor=none;" parent="1" source="rHMRhhfsmZjwr-JyM9iI-10" target="rHMRhhfsmZjwr-JyM9iI-29" edge="1">
          <mxGeometry relative="1" as="geometry">
            <Array as="points">
              <mxPoint x="520" y="204" />
              <mxPoint x="520" y="204" />
            </Array>
          </mxGeometry>
        </mxCell>
        <mxCell id="rHMRhhfsmZjwr-JyM9iI-10" value="Queue" style="verticalLabelPosition=top;html=1;verticalAlign=bottom;align=center;strokeColor=none;fillColor=#00BEF2;shape=mxgraph.azure.storage_queue;labelPosition=center;labelBackgroundColor=none;" parent="1" vertex="1">
          <mxGeometry x="437" y="181.5" width="50" height="45" as="geometry" />
        </mxCell>
        <mxCell id="rHMRhhfsmZjwr-JyM9iI-16" style="edgeStyle=orthogonalEdgeStyle;rounded=0;orthogonalLoop=1;jettySize=auto;html=1;fillColor=#dae8fc;strokeColor=#6c8ebf;labelBackgroundColor=none;" parent="1" source="rHMRhhfsmZjwr-JyM9iI-15" target="rHMRhhfsmZjwr-JyM9iI-7" edge="1">
          <mxGeometry relative="1" as="geometry" />
        </mxCell>
        <mxCell id="rHMRhhfsmZjwr-JyM9iI-15" value="Blob" style="verticalLabelPosition=bottom;html=1;verticalAlign=top;align=center;strokeColor=none;fillColor=#00BEF2;shape=mxgraph.azure.storage_blob;labelBackgroundColor=none;" parent="1" vertex="1">
          <mxGeometry x="310" y="305" width="50" height="45" as="geometry" />
        </mxCell>
        <mxCell id="rHMRhhfsmZjwr-JyM9iI-35" style="edgeStyle=orthogonalEdgeStyle;rounded=0;orthogonalLoop=1;jettySize=auto;html=1;fillColor=#dae8fc;strokeColor=#6c8ebf;labelBackgroundColor=none;" parent="1" source="rHMRhhfsmZjwr-JyM9iI-19" target="rHMRhhfsmZjwr-JyM9iI-25" edge="1">
          <mxGeometry relative="1" as="geometry">
            <Array as="points">
              <mxPoint x="680" y="264" />
              <mxPoint x="680" y="264" />
            </Array>
          </mxGeometry>
        </mxCell>
        <mxCell id="rHMRhhfsmZjwr-JyM9iI-19" value="Azure Search" style="aspect=fixed;html=1;points=[];align=center;image;fontSize=12;image=img/lib/azure2/app_services/Search_Services.svg;labelBackgroundColor=none;" parent="1" vertex="1">
          <mxGeometry x="854" y="236" width="72" height="52" as="geometry" />
        </mxCell>
        <mxCell id="rHMRhhfsmZjwr-JyM9iI-31" style="rounded=0;orthogonalLoop=1;jettySize=auto;html=1;edgeStyle=orthogonalEdgeStyle;fillColor=#dae8fc;strokeColor=#6c8ebf;labelBackgroundColor=none;" parent="1" source="rHMRhhfsmZjwr-JyM9iI-20" target="rHMRhhfsmZjwr-JyM9iI-25" edge="1">
          <mxGeometry relative="1" as="geometry">
            <Array as="points">
              <mxPoint x="640" y="190" />
              <mxPoint x="640" y="190" />
            </Array>
          </mxGeometry>
        </mxCell>
        <mxCell id="rHMRhhfsmZjwr-JyM9iI-20" value="Redis Cache" style="aspect=fixed;html=1;points=[];align=center;image;fontSize=12;image=img/lib/azure2/databases/Cache_Redis.svg;labelBackgroundColor=none;" parent="1" vertex="1">
          <mxGeometry x="650" y="160" width="64" height="52" as="geometry" />
        </mxCell>
        <mxCell id="rHMRhhfsmZjwr-JyM9iI-21" value="Static Content" style="aspect=fixed;html=1;points=[];align=center;image;fontSize=12;image=img/lib/azure2/general/File.svg;labelBackgroundColor=none;" parent="1" vertex="1">
          <mxGeometry x="379" y="305" width="36.51" height="45" as="geometry" />
        </mxCell>
        <mxCell id="rHMRhhfsmZjwr-JyM9iI-23" value="Resource Group" style="aspect=fixed;html=1;points=[];align=center;image;fontSize=12;image=img/lib/azure2/general/Resource_Groups.svg;dashed=1;fillColor=none;labelBackgroundColor=none;" parent="1" vertex="1">
          <mxGeometry x="150" y="390" width="30" height="28.24" as="geometry" />
        </mxCell>
        <mxCell id="rHMRhhfsmZjwr-JyM9iI-32" value="" style="group;labelBackgroundColor=none;strokeColor=none;" parent="1" vertex="1" connectable="0">
          <mxGeometry x="525" y="111" width="90" height="159" as="geometry" />
        </mxCell>
        <mxCell id="rHMRhhfsmZjwr-JyM9iI-29" value="" style="rounded=0;whiteSpace=wrap;html=1;dashed=1;labelBackgroundColor=none;fillColor=#FFFFFF;labelPosition=center;verticalLabelPosition=top;align=center;verticalAlign=bottom;spacingTop=0;spacingBottom=-35;strokeColor=none;" parent="rHMRhhfsmZjwr-JyM9iI-32" vertex="1">
          <mxGeometry width="90" height="159" as="geometry" />
        </mxCell>
        <mxCell id="rHMRhhfsmZjwr-JyM9iI-9" value="Function App" style="aspect=fixed;html=1;points=[];align=center;image;fontSize=12;image=img/lib/azure2/compute/Function_Apps.svg;labelPosition=center;verticalLabelPosition=top;verticalAlign=bottom;labelBackgroundColor=none;" parent="rHMRhhfsmZjwr-JyM9iI-32" vertex="1">
          <mxGeometry x="11" y="83" width="68" height="60" as="geometry" />
        </mxCell>
        <mxCell id="rHMRhhfsmZjwr-JyM9iI-33" value="" style="group;labelBackgroundColor=none;strokeColor=none;" parent="1" vertex="1" connectable="0">
          <mxGeometry x="303" y="111" width="90" height="159" as="geometry" />
        </mxCell>
        <mxCell id="rHMRhhfsmZjwr-JyM9iI-28" value="App Service Plan" style="rounded=0;whiteSpace=wrap;html=1;dashed=1;labelBackgroundColor=none;fillColor=#FFFFFF;labelPosition=center;verticalLabelPosition=top;align=center;verticalAlign=bottom;spacingTop=0;spacingBottom=-35;strokeColor=none;" parent="rHMRhhfsmZjwr-JyM9iI-33" vertex="1">
          <mxGeometry width="90" height="159" as="geometry" />
        </mxCell>
        <mxCell id="rHMRhhfsmZjwr-JyM9iI-8" value="Web App" style="aspect=fixed;html=1;points=[];align=center;image;fontSize=12;image=img/lib/azure2/compute/App_Services.svg;labelPosition=center;verticalLabelPosition=top;verticalAlign=bottom;labelBackgroundColor=none;" parent="rHMRhhfsmZjwr-JyM9iI-33" vertex="1">
          <mxGeometry x="13" y="81" width="64" height="64" as="geometry" />
        </mxCell>
        <mxCell id="-X691ST315V3n6Ed_qC9-5" value="" style="group;labelBackgroundColor=none;strokeColor=none;" parent="1" vertex="1" connectable="0">
          <mxGeometry x="1190" y="50" width="120" height="230" as="geometry" />
        </mxCell>
        <mxCell id="-X691ST315V3n6Ed_qC9-3" value="" style="rounded=0;whiteSpace=wrap;html=1;dashed=1;labelBackgroundColor=none;fillColor=#E6E6E6;strokeColor=none;" parent="-X691ST315V3n6Ed_qC9-5" vertex="1">
          <mxGeometry width="120" height="230" as="geometry" />
        </mxCell>
        <mxCell id="-X691ST315V3n6Ed_qC9-1" value="Azure Monitor" style="aspect=fixed;html=1;points=[];align=center;image;fontSize=12;image=img/lib/azure2/management_governance/Monitor.svg;dashed=1;labelBackgroundColor=none;fillColor=#FFFFFF;" parent="-X691ST315V3n6Ed_qC9-5" vertex="1">
          <mxGeometry x="28" y="15" width="64" height="64" as="geometry" />
        </mxCell>
        <mxCell id="-X691ST315V3n6Ed_qC9-2" value="Log Analytics" style="aspect=fixed;html=1;points=[];align=center;image;fontSize=12;image=img/lib/azure2/analytics/Log_Analytics_Workspaces.svg;dashed=1;labelBackgroundColor=none;fillColor=#FFFFFF;" parent="-X691ST315V3n6Ed_qC9-5" vertex="1">
          <mxGeometry x="28" y="120" width="64" height="64" as="geometry" />
        </mxCell>
        <mxCell id="-X691ST315V3n6Ed_qC9-8" value="" style="group;labelBackgroundColor=none;strokeColor=none;" parent="1" vertex="1" connectable="0">
          <mxGeometry x="740" y="50" width="300" height="150" as="geometry" />
        </mxCell>
        <mxCell id="rHMRhhfsmZjwr-JyM9iI-26" value="" style="rounded=0;whiteSpace=wrap;html=1;dashed=1;labelBackgroundColor=none;fillColor=#E6E6E6;strokeColor=none;" parent="-X691ST315V3n6Ed_qC9-8" vertex="1">
          <mxGeometry width="300" height="150" as="geometry" />
        </mxCell>
        <mxCell id="rHMRhhfsmZjwr-JyM9iI-17" value="Azure SQL Database" style="aspect=fixed;html=1;points=[];align=center;image;fontSize=12;image=img/lib/azure2/databases/SQL_Database.svg;labelBackgroundColor=none;" parent="-X691ST315V3n6Ed_qC9-8" vertex="1">
          <mxGeometry x="50" y="10" width="48" height="64" as="geometry" />
        </mxCell>
        <mxCell id="rHMRhhfsmZjwr-JyM9iI-18" value="Azure Cosmos Database" style="aspect=fixed;html=1;points=[];align=center;image;fontSize=12;image=img/lib/azure2/databases/Azure_Cosmos_DB.svg;labelBackgroundColor=none;" parent="-X691ST315V3n6Ed_qC9-8" vertex="1">
          <mxGeometry x="190" y="10" width="64" height="64" as="geometry" />
        </mxCell>
        <mxCell id="X5ZwWqdyRUsjHiMsH3oK-1" value="" style="rounded=0;whiteSpace=wrap;html=1;dashed=1;labelBackgroundColor=none;fillColor=#E6E6E6;strokeColor=none;" parent="1" vertex="1">
          <mxGeometry x="294" y="480" width="336" height="180" as="geometry" />
        </mxCell>
        <mxCell id="X5ZwWqdyRUsjHiMsH3oK-2" style="edgeStyle=orthogonalEdgeStyle;rounded=0;orthogonalLoop=1;jettySize=auto;html=1;fillColor=#dae8fc;strokeColor=#6c8ebf;labelBackgroundColor=none;" parent="1" source="X5ZwWqdyRUsjHiMsH3oK-9" target="X5ZwWqdyRUsjHiMsH3oK-4" edge="1">
          <mxGeometry relative="1" as="geometry">
            <Array as="points">
              <mxPoint x="414" y="583.5" />
              <mxPoint x="414" y="583.5" />
            </Array>
          </mxGeometry>
        </mxCell>
        <mxCell id="X5ZwWqdyRUsjHiMsH3oK-3" style="edgeStyle=orthogonalEdgeStyle;rounded=0;orthogonalLoop=1;jettySize=auto;html=1;fillColor=#dae8fc;strokeColor=#6c8ebf;labelBackgroundColor=none;" parent="1" source="X5ZwWqdyRUsjHiMsH3oK-4" target="X5ZwWqdyRUsjHiMsH3oK-6" edge="1">
          <mxGeometry relative="1" as="geometry">
            <Array as="points">
              <mxPoint x="524" y="583.5" />
              <mxPoint x="524" y="583.5" />
            </Array>
          </mxGeometry>
        </mxCell>
        <mxCell id="X5ZwWqdyRUsjHiMsH3oK-4" value="Queue" style="verticalLabelPosition=top;html=1;verticalAlign=bottom;align=center;strokeColor=none;fillColor=#00BEF2;shape=mxgraph.azure.storage_queue;labelPosition=center;labelBackgroundColor=none;" parent="1" vertex="1">
          <mxGeometry x="441" y="561" width="50" height="45" as="geometry" />
        </mxCell>
        <mxCell id="X5ZwWqdyRUsjHiMsH3oK-5" value="" style="group;labelBackgroundColor=none;strokeColor=none;" parent="1" vertex="1" connectable="0">
          <mxGeometry x="529" y="490.5" width="90" height="159" as="geometry" />
        </mxCell>
        <mxCell id="X5ZwWqdyRUsjHiMsH3oK-6" value="" style="rounded=0;whiteSpace=wrap;html=1;dashed=1;labelBackgroundColor=none;fillColor=#FFFFFF;labelPosition=center;verticalLabelPosition=top;align=center;verticalAlign=bottom;spacingTop=0;spacingBottom=-35;strokeColor=none;" parent="X5ZwWqdyRUsjHiMsH3oK-5" vertex="1">
          <mxGeometry width="90" height="159" as="geometry" />
        </mxCell>
        <mxCell id="X5ZwWqdyRUsjHiMsH3oK-7" value="Function App" style="aspect=fixed;html=1;points=[];align=center;image;fontSize=12;image=img/lib/azure2/compute/Function_Apps.svg;labelPosition=center;verticalLabelPosition=top;verticalAlign=bottom;labelBackgroundColor=none;" parent="X5ZwWqdyRUsjHiMsH3oK-5" vertex="1">
          <mxGeometry x="11" y="83" width="68" height="60" as="geometry" />
        </mxCell>
        <mxCell id="X5ZwWqdyRUsjHiMsH3oK-8" value="" style="group;labelBackgroundColor=none;strokeColor=none;" parent="1" vertex="1" connectable="0">
          <mxGeometry x="307" y="490.5" width="90" height="159" as="geometry" />
        </mxCell>
        <mxCell id="X5ZwWqdyRUsjHiMsH3oK-9" value="App Service Plan" style="rounded=0;whiteSpace=wrap;html=1;dashed=1;labelBackgroundColor=none;fillColor=#FFFFFF;labelPosition=center;verticalLabelPosition=top;align=center;verticalAlign=bottom;spacingTop=0;spacingBottom=-35;strokeColor=none;" parent="X5ZwWqdyRUsjHiMsH3oK-8" vertex="1">
          <mxGeometry width="90" height="159" as="geometry" />
        </mxCell>
        <mxCell id="X5ZwWqdyRUsjHiMsH3oK-10" value="Web App" style="aspect=fixed;html=1;points=[];align=center;image;fontSize=12;image=img/lib/azure2/compute/App_Services.svg;labelPosition=center;verticalLabelPosition=top;verticalAlign=bottom;labelBackgroundColor=none;" parent="X5ZwWqdyRUsjHiMsH3oK-8" vertex="1">
          <mxGeometry x="13" y="81" width="64" height="64" as="geometry" />
        </mxCell>
      </root>
    </mxGraphModel>
  </diagram>
</mxfile>
